<svg width="129" height="32" viewBox="0 0 129 32" fill="none" xmlns="http://www.w3.org/2000/svg">
<g clip-path="url(#clip0)">
<path d="M29.5619 7.92381H34.4381V25.2952H29.5619V23.1619C28.0381 25.6 25.6 25.9048 24.3809 25.9048C19.2 25.9048 15.5428 21.6381 15.5428 16.7619C15.5428 11.581 18.8952 7.61905 24.0762 7.61905C25.2952 7.61905 28.0381 7.92381 29.5619 10.3619V7.92381ZM20.7238 16.7619C20.7238 19.5048 22.8571 21.6381 25.6 21.6381C28.3428 21.6381 30.4762 19.5048 30.4762 16.7619C30.4762 14.019 28.3428 11.8857 25.6 11.8857C22.8571 11.8857 20.7238 14.019 20.7238 16.7619Z" fill="#222222"/>
<path d="M56.0762 20.419C55.4666 21.6381 53.6381 25.9048 47.5428 25.9048C44.8 25.9048 42.6666 24.9905 40.8381 23.4667C39.0095 21.6381 38.0952 19.5048 38.0952 16.7619C38.0952 13.4095 39.619 11.2762 40.8381 10.0571C42.9714 7.92381 45.4095 7.61905 47.2381 7.61905C50.5904 7.61905 52.7238 9.14286 53.9428 10.3619C55.7714 12.4952 56.0762 15.2381 56.0762 17.0667V17.3714H43.2762C43.2762 18.2857 43.5809 19.5048 44.1904 20.419C44.8 21.0286 45.7142 21.9429 47.5428 21.9429C49.3714 21.9429 50.8952 21.0286 51.5047 19.8095L56.0762 20.419ZM51.5047 14.3238C51.2 11.8857 49.0666 10.9714 47.5428 10.9714C46.019 10.9714 43.8857 12.1905 43.2762 14.3238H51.5047Z" fill="#222222"/>
<path d="M64.6095 34.4381H59.7333V7.92381H64.6095V10.0571C65.5238 9.14286 67.0476 7.61905 70.4 7.61905C71.9238 7.61905 74.3619 7.92381 76.1905 10.0571C77.4095 11.2762 78.6285 13.4095 78.6285 16.7619C78.6285 20.7238 76.8 22.8571 75.8857 23.7714C74.6666 24.9905 72.5333 25.9048 70.0952 25.9048C68.8762 25.9048 66.4381 25.6 64.6095 23.1619V34.4381V34.4381ZM65.8285 12.8C64.6095 13.7143 64.3047 14.9333 64.3047 16.4571C64.3047 17.981 64.9143 19.5048 65.8285 20.1143C66.4381 20.7238 67.3524 21.3333 68.8762 21.3333C70.4 21.3333 71.619 20.7238 72.2285 20.1143C73.1428 19.2 73.7524 17.6762 73.7524 16.4571C73.7524 15.2381 73.1428 13.7143 72.2285 12.8C71.619 12.1905 70.0952 11.8857 69.1809 11.8857C67.6571 11.8857 66.7428 12.1905 65.8285 12.8Z" fill="#222222"/>
<path d="M105.752 7.92381H110.629V25.2952H105.752V23.1619C103.924 25.6 101.79 25.9048 100.571 25.9048C95.3904 25.9048 91.7333 21.6381 91.7333 16.7619C91.7333 11.581 95.0857 7.61905 100.267 7.61905C101.486 7.61905 104.229 7.92381 105.752 10.3619V7.92381V7.92381ZM96.6095 16.7619C96.6095 19.5048 98.7428 21.6381 101.486 21.6381C104.229 21.6381 106.362 19.5048 106.362 16.7619C106.362 14.019 104.229 11.8857 101.486 11.8857C98.7428 11.8857 96.6095 14.019 96.6095 16.7619Z" fill="#222222"/>
<path d="M124.648 12.1905C123.429 10.9714 122.21 10.9714 121.905 10.9714C120.686 10.9714 120.076 11.581 120.076 12.4952C120.076 12.8 120.381 13.7143 121.6 14.0191L122.819 14.3238C124.038 14.6286 126.171 15.5429 127.086 16.7619C127.39 17.3714 128 18.5905 128 19.5048C128 21.0286 127.39 22.5524 126.171 23.7714C124.648 24.9905 123.124 25.6 120.99 25.6C117.333 25.6 115.505 23.7714 114.286 22.8571L116.724 19.8095C117.638 21.0286 119.162 21.9429 120.686 21.9429C121.905 21.9429 123.124 21.3333 123.124 20.1143C123.124 18.8952 122.21 18.5905 121.6 18.2857L120.381 17.981C119.162 17.6762 117.638 17.0667 116.724 15.8476C115.81 14.9333 115.505 14.0191 115.505 12.4952C115.505 10.9714 116.419 9.44762 117.333 8.53334C118.552 7.31429 120.381 7.31429 121.905 7.31429C123.124 7.31429 125.257 7.61905 127.39 9.14286L124.648 12.1905Z" fill="#222222"/>
<path d="M13.4095 11.8857V7.31429H8.83808V2.74286H4.26665V7.31429H-0.304779V11.8857H4.26665V20.7238H8.83808V11.8857H13.4095Z" fill="#222222"/>
<path d="M13.4095 20.7238H8.83807V25.2952H13.4095V20.7238Z" fill="#222222"/>
<path d="M85.9428 11.8857H81.3714V25.2952H85.9428V11.8857Z" fill="#222222"/>
<path d="M90.2095 7.31429H85.6381V11.8857H90.2095V7.31429Z" fill="#222222"/>
</g>
<defs>
<clipPath id="clip0">
<rect width="128.61" height="32" fill="white"/>
</clipPath>
</defs>
</svg>
