<svg width="54" height="32" viewBox="0 0 54 32" fill="none" xmlns="http://www.w3.org/2000/svg">
<path d="M21.9537 20.21C23.8502 22.7782 26.2604 22.9758 27.4457 22.9758C29.9744 22.9758 31.9499 21.988 33.2538 20.7632C34.2416 19.8149 35.9406 17.7208 35.9406 13.8488C35.9406 10.4508 34.6367 8.31716 33.3724 7.05286C31.4363 5.1168 29.0262 4.7612 27.5247 4.7612C24.3638 4.7612 22.7044 6.46019 21.9537 7.52694V5.31435H17.1333V31.4706H21.9537V20.21ZM26.2209 9.02841C27.3667 9.02841 28.6311 9.463 29.5003 10.2532C30.4485 11.162 30.9622 12.5844 30.9622 13.8488C30.9622 15.1131 30.488 16.5355 29.4608 17.4838C28.8286 18.0764 27.8013 18.7086 26.2209 18.7086C24.7195 18.7086 23.6921 18.1159 23.06 17.5627C22.1117 16.733 21.4795 15.4292 21.4795 13.8488C21.4795 12.2683 22.0327 11.083 23.0995 10.1742C23.9687 9.38397 24.9565 9.02841 26.2209 9.02841Z" fill="#222222"/>
<path d="M14.5573 10.1777V5.35121H9.7309V0.524704H4.90437V5.35121H0.0778656V10.1777H4.90437V19.5089H9.7309V10.1777H14.5573Z" fill="#222222"/>
<path d="M14.5574 19.5089H9.7309V24.3354H14.5574V19.5089Z" fill="#222222"/>
<path d="M52.6494 28.5618V23.7323H34.733V28.5618H52.6494Z" fill="#14E1CA"/>
</svg>
